<svg viewBox="0 0 18 18" fill="none" xmlns="http://www.w3.org/2000/svg">
<path d="M7.86548 11.567C7.75619 11.6802 7.69571 11.8317 7.69708 11.989C7.69845 12.1464 7.76155 12.2968 7.87279 12.4081C7.98404 12.5193 8.13452 12.5824 8.29184 12.5838C8.44916 12.5852 8.60072 12.5247 8.71388 12.4154L11.9143 9.203C11.9422 9.17513 11.9644 9.14202 11.9795 9.10558C11.9946 9.06913 12.0024 9.03006 12.0024 8.99059C12.0024 8.95113 11.9946 8.91206 11.9795 8.87561C11.9644 8.83917 11.9422 8.80606 11.9143 8.77819L8.71388 5.567C8.60072 5.4577 8.44916 5.39722 8.29184 5.39859C8.13452 5.39996 7.98404 5.46306 7.87279 5.5743C7.76155 5.68555 7.69845 5.83604 7.69708 5.99335C7.69571 6.15067 7.75619 6.30223 7.86548 6.4154L9.84068 8.4002H1.80068C1.64155 8.4002 1.48894 8.46341 1.37642 8.57593C1.2639 8.68845 1.20068 8.84106 1.20068 9.0002C1.20068 9.15932 1.2639 9.31194 1.37642 9.42446C1.48894 9.53698 1.64155 9.60019 1.80068 9.60019H9.84068L7.86548 11.567ZM14.4007 1.2002H6.60068C6.44155 1.2002 6.28894 1.26341 6.17642 1.37593C6.0639 1.48845 6.00068 1.64107 6.00068 1.8002C6.00068 1.95933 6.0639 2.11194 6.17642 2.22446C6.28894 2.33698 6.44155 2.4002 6.60068 2.4002H13.8007C13.9598 2.4002 14.1124 2.46341 14.2249 2.57593C14.3375 2.68845 14.4007 2.84107 14.4007 3.0002V15.0002C14.4007 15.1593 14.3375 15.3119 14.2249 15.4245C14.1124 15.537 13.9598 15.6002 13.8007 15.6002H6.30068C6.14155 15.6002 5.98894 15.6634 5.87642 15.7759C5.7639 15.8885 5.70068 16.0411 5.70068 16.2002C5.70068 16.3593 5.7639 16.5119 5.87642 16.6245C5.98894 16.737 6.14155 16.8002 6.30068 16.8002H14.4007C14.7189 16.8002 15.0242 16.6738 15.2492 16.4487C15.4743 16.2237 15.6007 15.9185 15.6007 15.6002V2.4002C15.6007 2.08194 15.4743 1.77671 15.2492 1.55167C15.0242 1.32662 14.7189 1.2002 14.4007 1.2002Z" fill="#12C0DD"/>
</svg>
